<svg width="457" height="550" xmlns="http://www.w3.org/2000/svg" xmlns:xlink="http://www.w3.org/1999/xlink" xml:space="preserve" overflow="hidden"><defs><clipPath id="clip0"><rect x="2926" y="825" width="457" height="550"/></clipPath></defs><g clip-path="url(#clip0)" transform="translate(-2926 -825)"><path d="M3288.71 1237.24C3384.88 1141.16 3382.55 836.795 3383 825 3371.11 825.557 3082.37 842.849 2988.08 937.035 2950.93 974.271 2928.91 1023.94 2926.27 1076.44 2923.76 1126.26 2938.88 1175.28 2968.82 1215 2970.97 1217.84 2975.36 1217.13 2976.6 1213.79 3011.7 1119.88 3081.76 1043.86 3171.22 1000.93 3194.84 989.602 3222.57 996.339 3241.11 1014.85 3131.83 1050.12 3045.41 1134.31 3007.28 1242.31 2992.63 1279.44 2978.93 1336.05 2976.6 1375L2998 1375C3007.49 1375 3015.12 1367.29 3016.05 1357.84 3018.92 1328.55 3028.53 1299.05 3038.8 1274.31 3072.53 1292.15 3110.76 1300.98 3149.17 1299.04 3201.74 1296.38 3251.45 1274.36 3288.71 1237.24Z" fill="#F5F5F5" fill-rule="evenodd"/></g></svg>